<svg width="40" height="40" viewBox="0 0 40 40" fill="none" xmlns="http://www.w3.org/2000/svg">
  <path fill-rule="evenodd" clip-rule="evenodd"
    d="M30.4796 38.6572C31.0997 38.141 31.1764 37.2287 30.6509 36.6196L17.7912 21.7144H14.1721L9.3265 27.6122C8.81602 28.2335 8.91497 29.1437 9.54751 29.6452C10.18 30.1466 11.1066 30.0494 11.6171 29.4281L15.5791 24.6058H16.4274L28.4053 38.489C28.9308 39.0981 29.8595 39.1734 30.4796 38.6572Z"
    fill="#0EA5E9" stroke="#0EA5E9" stroke-width="1.25714" stroke-linecap="round" />
  <path fill-rule="evenodd" clip-rule="evenodd"
    d="M30.4959 1.61807C31.0965 2.11839 31.1709 3.00273 30.662 3.59329L17.7558 18.5715H14.1692L9.31607 12.657C8.82177 12.0546 8.91775 11.1723 9.53044 10.6863C10.1431 10.2003 11.0405 10.2947 11.5348 10.8971L15.5321 15.7686H16.4347L28.4869 1.78147C28.9958 1.1909 29.8952 1.11775 30.4959 1.61807Z"
    fill="#F97316" stroke="#F97316" stroke-width="1.25714" stroke-linecap="round" />
</svg>
